<svg width="32" height="32" viewBox="0 0 32 32" fill="none" xmlns="http://www.w3.org/2000/svg">
<g clip-path="url(#clip0_1431_74)">
<rect x="5" y="1" width="25" height="7.5" fill="#33C481"/>
<rect x="5" y="8.5" width="25" height="7.5" fill="#21A366"/>
<rect x="5" y="16" width="25" height="7.5" fill="#107C41"/>
<rect x="5" y="23.5" width="25" height="7.5" fill="#185C37"/>
</g>
<g filter="url(#filter0_d_1431_74)">
<rect x="2" y="8" width="17" height="17" rx="2" fill="url(#paint0_linear_1431_74)" shape-rendering="crispEdges"/>
<path d="M8.79545 12.2727L10.3892 15.0298H10.4574L12.0682 12.2727H14.429L11.7955 16.6364L14.5142 21H12.0938L10.4574 18.2131H10.3892L8.75284 21H6.34943L9.0554 16.6364L6.41761 12.2727H8.79545Z" fill="white"/>
</g>
<defs>
<filter id="filter0_d_1431_74" x="0" y="6" width="25" height="25" filterUnits="userSpaceOnUse" color-interpolation-filters="sRGB">
<feFlood flood-opacity="0" result="BackgroundImageFix"/>
<feColorMatrix in="SourceAlpha" type="matrix" values="0 0 0 0 0 0 0 0 0 0 0 0 0 0 0 0 0 0 127 0" result="hardAlpha"/>
<feOffset dx="2" dy="2"/>
<feGaussianBlur stdDeviation="2"/>
<feComposite in2="hardAlpha" operator="out"/>
<feColorMatrix type="matrix" values="0 0 0 0 0 0 0 0 0 0 0 0 0 0 0 0 0 0 0.25 0"/>
<feBlend mode="normal" in2="BackgroundImageFix" result="effect1_dropShadow_1431_74"/>
<feBlend mode="normal" in="SourceGraphic" in2="effect1_dropShadow_1431_74" result="shape"/>
</filter>
<linearGradient id="paint0_linear_1431_74" x1="2.53554" y1="8" x2="18.4645" y2="25" gradientUnits="userSpaceOnUse">
<stop stop-color="#17874E"/>
<stop offset="1" stop-color="#0B6732"/>
</linearGradient>
<clipPath id="clip0_1431_74">
<rect x="5" y="1" width="25" height="30" rx="2" fill="white"/>
</clipPath>
</defs>
</svg>
