<svg width="32" height="32" viewBox="0 0 32 32" fill="none" xmlns="http://www.w3.org/2000/svg">
<g clip-path="url(#clip0_1432_15)">
<path d="M10.3333 32C13.2773 32 15.6667 29.6107 15.6667 26.6667V21.3333H10.3333C7.38933 21.3333 5 23.7227 5 26.6667C5 29.6107 7.38933 32 10.3333 32Z" fill="#0ACF83"/>
<path d="M5 16C5 13.056 7.38933 10.6667 10.3333 10.6667H15.6667V21.3333H10.3333C7.38933 21.3333 5 18.944 5 16Z" fill="#A259FF"/>
<path d="M5 5.33333C5 2.38933 7.38933 0 10.3333 0H15.6667V10.6667H10.3333C7.38933 10.6667 5 8.27733 5 5.33333Z" fill="#F24E1E"/>
<path d="M15.6667 -3.8147e-06H21C23.944 -3.8147e-06 26.3333 2.38933 26.3333 5.33333C26.3333 8.27733 23.944 10.6667 21 10.6667H15.6667V-3.8147e-06Z" fill="#FF7262"/>
<path d="M26.3333 16C26.3333 18.944 23.944 21.3333 21 21.3333C18.056 21.3333 15.6667 18.944 15.6667 16C15.6667 13.056 18.056 10.6667 21 10.6667C23.944 10.6667 26.3333 13.056 26.3333 16Z" fill="#1ABCFE"/>
</g>
<defs>
<clipPath id="clip0_1432_15">
<rect width="21.3333" height="32" fill="white" transform="translate(5)"/>
</clipPath>
</defs>
</svg>
