<svg width="32" height="32" viewBox="0 0 32 32" fill="none" xmlns="http://www.w3.org/2000/svg">
<g clip-path="url(#clip0_1433_16)">
<path d="M15.8645 0.00903444C7.76044 0.00903502 8.26651 3.52343 8.26651 3.52343L8.27555 7.16431H16.009V8.25748H5.20384C5.20384 8.25748 0.0180664 7.66937 0.0180664 15.8464C0.0180658 24.0235 4.54432 23.7335 4.54432 23.7335H7.24562V19.939C7.24562 19.939 7.10001 15.4128 11.6996 15.4128H19.3698C19.3698 15.4128 23.6793 15.4824 23.6793 11.2479V4.24619C23.6793 4.24619 24.3336 0.00903444 15.8645 0.00903444ZM11.6002 2.45737C12.3696 2.45737 12.9915 3.07925 12.9915 3.84867C12.9915 4.6181 12.3696 5.23998 11.6002 5.23998C10.8308 5.23998 10.2089 4.6181 10.2089 3.84867C10.2089 3.07925 10.8308 2.45737 11.6002 2.45737Z" fill="url(#paint0_linear_1433_16)"/>
<path d="M16.0946 31.7658C24.1987 31.7658 23.6926 28.2514 23.6926 28.2514L23.6836 24.6105H15.9501V23.5173H26.7553C26.7553 23.5173 31.9411 24.1054 31.9411 15.9284C31.9411 7.75136 27.4148 8.04133 27.4148 8.04133H24.7135V11.8358C24.7135 11.8358 24.8591 16.3621 20.2595 16.3621H12.5893C12.5893 16.3621 8.27985 16.2924 8.27985 20.5269V27.5286C8.27985 27.5286 7.62556 31.7658 16.0946 31.7658ZM20.3589 29.3175C19.5895 29.3175 18.9676 28.6956 18.9676 27.9261C18.9676 27.1567 19.5895 26.5348 20.3589 26.5348C21.1283 26.5348 21.7502 27.1567 21.7502 27.9261C21.7502 28.6956 21.1283 29.3175 20.3589 29.3175Z" fill="url(#paint1_linear_1433_16)"/>
</g>
<defs>
<linearGradient id="paint0_linear_1433_16" x1="306.804" y1="285.652" x2="1888.79" y2="1851.86" gradientUnits="userSpaceOnUse">
<stop stop-color="#387EB8"/>
<stop offset="1" stop-color="#366994"/>
</linearGradient>
<linearGradient id="paint1_linear_1433_16" x1="461.073" y1="496.296" x2="2159.96" y2="2102.3" gradientUnits="userSpaceOnUse">
<stop stop-color="#FFE052"/>
<stop offset="1" stop-color="#FFC331"/>
</linearGradient>
<clipPath id="clip0_1433_16">
<rect width="32" height="31.875" fill="white"/>
</clipPath>
</defs>
</svg>
